<svg width="24" height="24" viewBox="0 0 24 24" fill="none" xmlns="http://www.w3.org/2000/svg">
<path fill-rule="evenodd" clip-rule="evenodd" d="M14.4513 0.981478C12.9292 0.125315 11.0708 0.125314 9.54869 0.981478L3.54869 4.35648C1.97431 5.24207 1 6.90799 1 8.71436V15.2856C1 17.0919 1.97431 18.7579 3.54869 19.6435L9.54869 23.0185C11.0708 23.8746 12.9292 23.8746 14.4513 23.0185L20.4513 19.6435C22.0257 18.7579 23 17.0919 23 15.2856V8.71436C23 6.90799 22.0257 5.24207 20.4513 4.35648L14.4513 0.981478ZM10.5292 2.72463C11.4425 2.21093 12.5575 2.21093 13.4708 2.72463L14.5729 3.34458L12.1225 4.74635L9.5506 3.2751L10.5292 2.72463ZM5.86375 5.34896L4.52922 6.09963C3.58459 6.63098 3 7.63054 3 8.71436V10.0284L5.85172 8.36678L5.86375 5.34896ZM3 13.946V15.2856C3 16.3694 3.58458 17.3689 4.52921 17.9003L5.86385 18.651L5.85173 15.6076L3 13.946ZM9.52812 20.7122L10.5292 21.2753C11.4425 21.789 12.5575 21.789 13.4708 21.2753L14.5954 20.6427L12.1225 19.2281L9.52812 20.7122ZM18.3817 18.5129L19.4708 17.9003C20.4154 17.3689 21 16.3694 21 15.2856V14.0888L18.3933 15.6076L18.3817 18.5129ZM21 9.88566V8.71436C21 7.63054 20.4154 6.63098 19.4708 6.09963L18.3818 5.48707L18.3933 8.36678L21 9.88566ZM16.3783 4.61593L16.3933 8.37475C16.3961 9.08358 16.7739 9.73797 17.3864 10.0948L20.6341 11.9872L17.3864 13.8796C16.7739 14.2365 16.3961 14.8908 16.3933 15.5997L16.3783 19.3585L13.1156 17.4921C12.5003 17.1401 11.7447 17.1401 11.1294 17.4921L7.86669 19.3585L7.85171 15.5997C7.84889 14.8908 7.47108 14.2365 6.85862 13.8796L3.61087 11.9872L6.85862 10.0948C7.47107 9.73797 7.84889 9.08359 7.85171 8.37475L7.86668 4.61593L11.1294 6.48237C11.7447 6.83434 12.5003 6.83434 13.1156 6.48237L16.3783 4.61593Z" fill="url(#paint0_radial_3277_18050)"/>
<defs>
<radialGradient id="paint0_radial_3277_18050" cx="0" cy="0" r="1" gradientUnits="userSpaceOnUse" gradientTransform="translate(12 12) rotate(-180) scale(11 11.6606)">
<stop stop-color="#1B68E4"/>
<stop offset="1" stop-color="#8A87EF"/>
</radialGradient>
</defs>
</svg>
