<svg width="91" height="38" viewBox="0 0 91 38" fill="none" xmlns="http://www.w3.org/2000/svg">
<g clip-path="url(#clip0_7259_73)">
<path d="M31.7699 20.8392L27.444 23.5073C26.7789 23.9175 26.3668 24.6376 26.3494 25.4189L26.2439 30.1989L28.8088 28.7131C30.6415 27.6495 31.7697 25.6905 31.7699 23.5714V20.8392ZM18.9428 29.4246C18.2504 29.0621 17.4222 29.0742 16.7419 29.4578L12.5476 31.8235L15.0141 33.2548C16.8593 34.3255 19.1372 34.3256 20.9824 33.2548L23.4833 31.8022L18.9428 29.4246ZM20.2092 10.2344C18.9553 10.9416 17.427 10.9664 16.1513 10.2984L11.6903 7.96115L11.5883 12.6238C11.5585 13.9732 10.8903 15.2245 9.7965 15.9987L9.57238 16.1469L5.21209 18.834L9.2605 21.3207C10.4876 22.0741 11.2501 23.3979 11.2847 24.8378L11.414 30.231L15.7873 27.7656C17.0416 27.0586 18.57 27.036 19.8452 27.704L24.3039 30.0377L24.4071 25.3762C24.4388 23.9363 25.1987 22.6102 26.4241 21.8543L30.8817 19.1032L26.8807 16.6473C25.654 15.894 24.8914 14.5695 24.8565 13.1302L24.7249 7.68367L20.2092 10.2344ZM20.9824 4.74519C19.1373 3.67465 16.8592 3.67465 15.0141 4.74519L12.5097 6.19664L17.0538 8.57778C17.7458 8.94009 18.574 8.92606 19.2546 8.5422L23.4477 6.1753L20.9824 4.74519ZM4.23972 23.9662C4.3703 25.9317 5.4693 27.7159 7.18768 28.7131L9.46565 30.0341L9.34233 24.8841C9.32335 24.1029 8.91001 23.3837 8.24425 22.9749L4.22667 20.5072V23.5714L4.23972 23.9662ZM31.7699 14.4286C31.7698 12.442 30.7777 10.5962 29.1432 9.49679L28.8077 9.2869L26.6767 8.05009L26.7989 13.0827C26.8178 13.864 27.2312 14.5831 27.8969 14.9919L31.7699 17.3683V14.4286ZM4.22667 17.1584L8.55257 14.4927C9.21754 14.0824 9.62975 13.3634 9.64708 12.5823L9.75144 7.79751L7.18768 9.2869C5.35481 10.3506 4.22675 12.3095 4.22667 14.4286V17.1584ZM33.7122 23.5714L33.6944 24.0955C33.5211 26.703 32.0635 29.0704 29.7836 30.3934L21.9571 34.9351C19.5092 36.3556 16.4874 36.3556 14.0394 34.9351L6.21293 30.3934C3.933 29.0704 2.47542 26.703 2.30208 24.0955L2.28429 23.5714V14.4286C2.28437 11.617 3.78116 9.01778 6.21293 7.60659L14.0394 3.06487C16.4872 1.64463 19.5093 1.64464 21.9571 3.06487L29.7836 7.60659C32.2153 9.01779 33.7122 11.617 33.7122 14.4286V23.5714Z" fill="url(#paint0_linear_7259_73)"/>
</g>
<path d="M82.309 27.4503C79.5444 27.4503 77.5069 26.8191 76.1965 25.5567C74.9022 24.2783 74.255 22.5604 74.255 20.4031V20.2832C74.255 18.829 74.5826 17.5506 75.2377 16.448C75.8929 15.3294 76.8358 14.4585 78.0662 13.8352C79.2967 13.196 80.7749 12.8764 82.5007 12.8764C84.2106 12.8764 85.6568 13.188 86.8393 13.8113C88.0219 14.4185 88.9167 15.2575 89.524 16.3281C90.1472 17.3988 90.4588 18.6293 90.4588 20.0196V21.1701H76.8677C77.0115 22.4965 77.5469 23.5112 78.4737 24.2143C79.4006 24.9175 80.7429 25.269 82.5007 25.269C83.7631 25.269 84.7779 25.0853 85.5449 24.7177C86.328 24.3502 86.9032 23.8069 87.2708 23.0877H90.2431C89.6518 24.6059 88.677 25.7165 87.3187 26.4196C85.9604 27.1068 84.2905 27.4503 82.309 27.4503ZM82.5487 15.0337C80.9506 15.0337 79.6642 15.3933 78.6894 16.1124C77.7147 16.8155 77.1154 17.8223 76.8917 19.1327H87.7742C87.4865 16.4001 85.7447 15.0337 82.5487 15.0337Z" fill="black"/>
<path d="M63.6189 27.0428L56.8593 13.3558H59.8316L64.9373 24.2143L70.2827 13.3558H73.255L66.1598 27.0428H63.6189Z" fill="black"/>
<path d="M41.1176 27.0428V10H55.4279V12.3251H43.7544V17.4068H53.6301V19.7079H43.7544V24.6458H55.8593V27.0428H41.1176Z" fill="black"/>
<defs>
<linearGradient id="paint0_linear_7259_73" x1="17.9983" y1="1.99969" x2="17.9983" y2="36.0005" gradientUnits="userSpaceOnUse">
<stop stop-color="#5693F6"/>
<stop offset="1" stop-color="#8A87EF"/>
</linearGradient>
<clipPath id="clip0_7259_73">
<rect width="34" height="34" fill="white" transform="translate(1.11764 2)"/>
</clipPath>
</defs>
</svg>
